<svg aria-hidden="true" style="position: absolute; width: 0; height: 0; overflow: hidden;" version="1.1" xmlns="http://www.w3.org/2000/svg" xmlns:xlink="http://www.w3.org/1999/xlink">
<defs>
<symbol id="icon-close-btn_45x45" viewBox="0 0 32 32">
<path fill="#487996" style="fill: var(--color1, #487996)" d="M17.253 16l6.48-6.48c0.146-0.17 0.222-0.389 0.213-0.612s-0.101-0.436-0.26-0.594c-0.158-0.158-0.37-0.251-0.594-0.26s-0.442 0.068-0.612 0.213l-6.48 6.48-6.48-6.489c-0.17-0.146-0.389-0.222-0.612-0.213s-0.436 0.101-0.594 0.26c-0.158 0.158-0.251 0.371-0.26 0.594s0.068 0.442 0.213 0.612l6.48 6.489-6.489 6.48c-0.093 0.080-0.169 0.178-0.222 0.288s-0.083 0.23-0.088 0.353c-0.005 0.122 0.016 0.244 0.061 0.359s0.113 0.218 0.199 0.304 0.19 0.154 0.304 0.199c0.114 0.045 0.236 0.065 0.359 0.061s0.243-0.035 0.353-0.088c0.11-0.053 0.208-0.129 0.288-0.222l6.489-6.48 6.48 6.48c0.17 0.146 0.389 0.222 0.612 0.213s0.436-0.101 0.594-0.26c0.158-0.158 0.251-0.37 0.26-0.594s-0.067-0.442-0.213-0.612l-6.48-6.48z"></path>
</symbol>
<symbol id="icon-burger-menu_32x32" viewBox="0 0 32 32">
<path fill="#487996" style="fill: var(--color3, #487996)" d="M32 9c0 0.552-0.448 1-1 1h-30c-0.552 0-1-0.448-1-1s0.448-1 1-1h30c0.552 0 1 0.448 1 1zM32 25c0 0.552-0.448 1-1 1h-30c-0.552 0-1-0.448-1-1s0.448-1 1-1h30c0.552 0 1 0.448 1 1zM32 16.992c0 0.548-0.444 0.992-0.992 0.992h-30.016c-0.548 0-0.992-0.444-0.992-0.992s0.444-0.992 0.992-0.992h30.016c0.548 0 0.992 0.444 0.992 0.992z"></path>
</symbol>
<symbol id="icon-phone_24x24" viewBox="0 0 32 32">
<path fill="#008cef" style="fill: var(--color4, #008cef)" d="M25.64 20.347l-3.387-0.387c-0.398-0.047-0.802-0.003-1.181 0.129s-0.723 0.347-1.006 0.631l-2.453 2.453c-3.785-1.925-6.862-5.002-8.787-8.787l2.467-2.467c0.573-0.573 0.853-1.373 0.76-2.187l-0.387-3.36c-0.076-0.65-0.388-1.25-0.877-1.686s-1.121-0.675-1.776-0.674h-2.307c-1.507 0-2.76 1.253-2.667 2.76 0.707 11.387 9.813 20.48 21.187 21.187 1.507 0.093 2.76-1.16 2.76-2.667v-2.307c0.013-1.347-1-2.48-2.347-2.64z"></path>
</symbol>
</defs>
</svg>